<svg width="264" height="264" viewBox="0 0 264 264" fill="none" xmlns="http://www.w3.org/2000/svg">
<g clip-path="url(#clip0_3_197)">
<rect width="264" height="264" rx="30" fill="url(#paint0_linear_3_197)"/>
<path d="M181.496 14C194.131 13.9994 206.763 18.6409 216.393 27.9866C230.007 41.1985 234.021 60.2151 228.439 76.8565L279 125.924V133.68L226.169 82.41C225.316 84.169 224.355 85.8904 223.269 87.5587L279 141.643V157.239V166.262L207.974 102.459C206.274 103.51 204.508 104.459 202.688 105.301L279 177.541V186L196.694 107.616C179.567 112.993 160.005 109.087 146.414 95.8981C133.56 83.4242 129.345 65.8051 133.602 49.8707L166.278 81.5911L194.221 74.3809L201.66 47.2638L168.975 15.5431C173.065 14.5186 177.272 14.0005 181.496 14Z" fill="white"/>
<path fill-rule="evenodd" clip-rule="evenodd" d="M-91.4003 174.363C-72.7332 174.363 -57.6001 189.504 -57.6001 208.182C-57.6001 226.859 -72.7332 242 -91.4003 242C-110.067 242 -125.2 226.859 -125.2 208.182C-125.2 189.504 -110.067 174.363 -91.4003 174.363ZM102.95 174.363C121.617 174.363 136.75 189.504 136.75 208.182C136.75 226.859 121.617 242 102.95 242C84.283 242 69.1498 226.859 69.1498 208.182C69.1498 189.504 84.283 174.363 102.95 174.363ZM32.5326 56L37.0401 59.3821L101.885 108.046L153.397 120.939C167.559 124.482 177.742 136.672 178.891 151.031L179 153.747V212.929L166.198 216.132L152.362 219.593C153.22 215.85 153.652 212.022 153.65 208.182C153.65 180.166 130.951 157.454 102.95 157.454C74.9494 157.454 52.2501 180.166 52.2501 208.182C52.2501 214.11 53.2665 219.802 55.1353 225.091H-43.5855C-41.6698 219.66 -40.6941 213.941 -40.7004 208.182C-40.7004 180.166 -63.3989 157.454 -91.4003 157.454C-119.401 157.454 -142.1 180.166 -142.1 208.182C-142.1 210.753 -141.909 213.279 -141.54 215.747L-159 198.276V117.515L-155.083 112.811L-112.833 62.0841L-107.765 56H32.5326ZM21.2724 89.8184H-91.9406L-120.103 123.636H43.7998L53.4582 113.972L21.2724 89.8184Z" fill="white"/>
</g>
<defs>
<linearGradient id="paint0_linear_3_197" x1="132" y1="0" x2="132" y2="264" gradientUnits="userSpaceOnUse">
<stop stop-color="#235EE8"/>
<stop offset="1" stop-color="#022064"/>
</linearGradient>
<clipPath id="clip0_3_197">
<rect width="264" height="264" rx="30" fill="white"/>
</clipPath>
</defs>
</svg>
