<svg width="135" height="137" viewBox="0 0 135 137" fill="none" xmlns="http://www.w3.org/2000/svg">
<path d="M78.5 0C63.5153 -1.78691e-07 49.1443 5.95266 38.5485 16.5485C27.9527 27.1443 22 41.5153 22 56.5C22 71.4847 27.9527 85.8557 38.5485 96.4515C49.1443 107.047 63.5153 113 78.5 113V98.9225C67.2489 98.9225 56.4585 94.453 48.5028 86.4972C40.547 78.5415 36.0775 67.7511 36.0775 56.5C36.0775 45.2489 40.547 34.4585 48.5028 26.5028C56.4585 18.547 67.2489 14.0775 78.5 14.0775V0Z" fill="url(#paint0_linear_91_51)"/>
<path d="M0 63C-8.85435e-07 73.1282 2.1221 83.144 6.22954 92.402C10.337 101.66 16.3386 109.955 23.8476 116.751C31.3566 123.548 40.2064 128.696 49.8266 131.863C59.4467 135.031 68.4011 137.006 78.4792 136V122.894C70.1121 123.729 61.9869 122.13 54 119.5C46.0131 116.87 38.7342 113.143 32.5 107.5C26.2658 101.857 21.9101 95.1862 18.5 87.5C15.0899 79.8138 12.3084 71.4087 12.3084 63H0Z" fill="url(#paint1_linear_91_51)"/>
<path d="M108 57C108 51.1655 106.27 45.4619 103.028 40.6107C99.7868 35.7594 95.1796 31.9783 89.7892 29.7456C84.3987 27.5128 78.4673 26.9286 72.7448 28.0668C67.0224 29.2051 61.766 32.0147 57.6403 36.1404C53.5147 40.266 50.7051 45.5224 49.5668 51.2448C48.4286 56.9673 49.0128 62.8987 51.2456 68.2892C53.4783 73.6796 57.2594 78.2869 62.1107 81.5284C66.9619 84.7699 72.6655 86.5 78.5 86.5V57H108Z" fill="url(#paint2_linear_91_51)"/>
<defs>
<linearGradient id="paint0_linear_91_51" x1="78.5" y1="0" x2="78.5" y2="113" gradientUnits="userSpaceOnUse">
<stop stop-color="#235EE8"/>
<stop offset="1" stop-color="#143582"/>
</linearGradient>
<linearGradient id="paint1_linear_91_51" x1="39.2396" y1="63" x2="39.2396" y2="136.264" gradientUnits="userSpaceOnUse">
<stop stop-color="#235EE8"/>
<stop offset="1" stop-color="#143582"/>
</linearGradient>
<linearGradient id="paint2_linear_91_51" x1="78.5" y1="27.5" x2="78.5" y2="86.5" gradientUnits="userSpaceOnUse">
<stop stop-color="#235EE8"/>
<stop offset="1" stop-color="#143582"/>
</linearGradient>
</defs>
</svg>
