<svg width="171" height="171" viewBox="0 0 171 171" fill="none" xmlns="http://www.w3.org/2000/svg">
<rect width="171" height="171" rx="20" fill="url(#paint0_linear_163_13)"/>
<path d="M96.5 17C81.5153 17 67.1443 22.9527 56.5485 33.5485C45.9527 44.1443 40 58.5153 40 73.5C40 88.4847 45.9527 102.856 56.5485 113.452C67.1443 124.047 81.5153 130 96.5 130V115.922C85.2489 115.922 74.4585 111.453 66.5028 103.497C58.547 95.5415 54.0775 84.7511 54.0775 73.5C54.0775 62.2489 58.547 51.4585 66.5028 43.5028C74.4585 35.547 85.2489 31.0775 96.5 31.0775V17Z" fill="white"/>
<path d="M18 80C18 90.1282 20.1221 100.144 24.2295 109.402C28.337 118.66 34.3386 126.955 41.8476 133.751C49.3566 140.548 58.2064 145.696 67.8266 148.863C77.4467 152.031 86.4011 154.006 96.4792 153V139.894C88.1121 140.729 79.9869 139.13 72 136.5C64.0131 133.87 56.7342 130.143 50.5 124.5C44.2658 118.857 39.9101 112.186 36.5 104.5C33.0899 96.8138 30.3084 88.4087 30.3084 80H18Z" fill="white"/>
<path d="M126 74C126 68.1655 124.27 62.4619 121.028 57.6107C117.787 52.7594 113.18 48.9783 107.789 46.7456C102.399 44.5128 96.4673 43.9286 90.7448 45.0668C85.0224 46.2051 79.766 49.0147 75.6403 53.1404C71.5147 57.266 68.7051 62.5224 67.5668 68.2448C66.4286 73.9673 67.0128 79.8987 69.2456 85.2892C71.4783 90.6796 75.2594 95.2869 80.1107 98.5284C84.9619 101.77 90.6655 103.5 96.5 103.5V74H126Z" fill="white"/>
<defs>
<linearGradient id="paint0_linear_163_13" x1="85.5" y1="0" x2="85.5" y2="171" gradientUnits="userSpaceOnUse">
<stop stop-color="#235EE8"/>
<stop offset="1" stop-color="#143582"/>
</linearGradient>
</defs>
</svg>
