<?xml version="1.0" encoding="utf-8"?>
<!-- Generator: Adobe Illustrator 27.5.0, SVG Export Plug-In . SVG Version: 6.00 Build 0)  -->
<svg version="1.1" xmlns="http://www.w3.org/2000/svg" xmlns:xlink="http://www.w3.org/1999/xlink" x="0px" y="0px"
	 viewBox="0 0 500 500" style="enable-background:new 0 0 500 500;" xml:space="preserve">
<g id="BACKGROUND">
	<g>
		<defs>
			<rect id="SVGID_1_" width="500" height="500"/>
		</defs>
		<clipPath id="SVGID_00000152258231674065916650000008464449168732086718_">
			<use xlink:href="#SVGID_1_"  style="overflow:visible;"/>
		</clipPath>
		
			<rect style="clip-path:url(#SVGID_00000152258231674065916650000008464449168732086718_);fill:#FFFFFF;" width="500" height="500"/>
		
			<path style="opacity:0.7;clip-path:url(#SVGID_00000152258231674065916650000008464449168732086718_);fill:none;stroke:#EDECED;stroke-miterlimit:10;" d="
			M199.753-26.653c-19.254,13.421-19.686,41.89-13.591,64.555c6.095,22.665,16.765,45.442,12.679,68.554
			c-7.973,45.106-65.875,67.663-117.211,16.369C47.794,89.016,15.576,12.441-46.004,16.607 M295.045,95.614
			c12.663-6.258,13.684-27.523-6.681-39.147C259.858,40.196,260.328,112.77,295.045,95.614z M258.441-27.329
			c21.048-4.974,43.635,4.054,59.232,19.038c15.597,14.984,25.154,35.172,32.187,55.624
			c11.487,33.404,28.543,142.149,147.117,182.19c68.362,23.085,88.168-26.489,75.555-61.436
			c-15.163-42.012-62.456-58.71-93.425-87.247c-33.86-31.201-50.977-79.603-44.261-125.154 M316.403,538.674
			c-49.318-53.835-55.439-153.351-129.54-179.715c-27.41-9.752-62.394-4.346-96.108-51.686
			c-33.683-47.296-30.423-99.179-60.161-133.432c-21.755-25.059-59.752-34.479-90.693-22.485 M557.56,349.218
			c4.387-15.025-7.06-42.044-52.012-38.329c-31.164,2.575-56.037,14.831-117.19-27.089c-28.921-19.825-81.288-63.057-101.136-45.851
			c-22.316,19.346,9.472,187.236,202.535,297.305 M158.423,449.349c-15.142-28.648-74.978-0.028-97.725-38.331
			c-6.311-10.627-6.997-24.514-15.685-33.304c-25.77-26.073-77.435,17.845-33.335,70.139c20.9,24.784,53.826,38.348,86.051,37.164
			C115.647,484.36,176.512,483.573,158.423,449.349z M463.217,448.418c30.793-5.328,1.331-47.438-18.254-44.339
			C415.865,408.684,437.186,452.922,463.217,448.418z"/>
	</g>
</g>
<g id="OBJECTS">
	<g>
		
			<linearGradient id="SVGID_00000162328233564530998890000016892110484291165104_" gradientUnits="userSpaceOnUse" x1="251.1213" y1="392.3277" x2="251.1213" y2="68.5502">
			<stop  offset="0.0272" style="stop-color:#BEDEF5;stop-opacity:0"/>
			<stop  offset="0.8786" style="stop-color:#BEDEF5"/>
		</linearGradient>
		<path style="fill:url(#SVGID_00000162328233564530998890000016892110484291165104_);" d="M166.568,390.421
			C38.078,373.004,42.78,283.624,82.111,261.076c7.488-4.293,16.036-6.343,23.889-9.924c33.939-15.474,11.997-41.204,3.233-54.818
			c-22.091-34.316-15.403-84.25,14.94-111.542c30.343-27.292,80.704-28.671,112.496-3.081
			c34.733,27.958,35.527,60.978,104.903,59.341c23.847-0.563,78.098-8.306,97.442,28.233c20.007,37.792-20.781,63.609-15.944,99.812
			c2.14,16.016,18.759,31.802,20.621,47.854c3.282,28.308-10.574,57.928-34.407,73.551L166.568,390.421z"/>
		<g>
			<path style="fill:#FFFFFF;" d="M350.542,181.543c-13.142-10.202-11.762-20.479-20.605-20.045
				c1.866-21.382-19.198-33.382-32.592-23.415c-10.88,8.097-13.836,32.537-33.787,16.384c-13.274-10.747-33.376-2.856-35.804,14.042
				c-4.304-5.391-13.597-5.623-18.165-0.454c-3.21,3.632-4.646,9.519-9.356,10.666c-2.374,0.578-4.852-0.336-7.293-0.229
				c-2.441,0.107-5.223,2.205-4.387,4.501l161.56-0.162C350.799,182.83,351.084,181.964,350.542,181.543z"/>
			<path style="fill:#FFFFFF;" d="M94.918,114.316c8.827-6.852,7.9-13.756,13.84-13.464c-1.254-14.362,12.895-22.422,21.891-15.727
				c7.308,5.438,9.293,21.854,22.694,11.005c8.916-7.218,22.418-1.919,24.049,9.432c2.891-3.621,9.133-3.777,12.201-0.305
				c2.156,2.44,3.121,6.394,6.284,7.164c1.594,0.388,3.259-0.226,4.899-0.154c1.64,0.072,3.508,1.481,2.946,3.023l-108.515-0.109
				C94.745,115.18,94.553,114.598,94.918,114.316z"/>
		</g>
		<g>
			<g>
				<g>
					<g>
						<path style="fill:#4684AF;stroke:#BEDEF5;stroke-width:1.1396;stroke-miterlimit:10;" d="M276.469,418.248
							c0.673-12.368-0.432-23.831-1.159-35.371c-0.178-2.878-0.484-5.793-0.607-8.672c-0.098-2.911-0.196-5.803-0.293-8.675
							c-0.036-1.453-0.076-2.914-0.085-4.371c0.041-1.439,0.092-2.883,0.158-4.329c0.132-2.893,0.322-5.799,0.597-8.708
							c0.311-2.892,0.859-5.717,1.435-8.57c0.298-1.422,0.623-2.841,0.979-4.255c0.183-0.704,0.353-1.419,0.568-2.11l0.7-2.049
							c0.967-2.724,2.07-5.417,3.326-8.051c0.314-0.659,0.638-1.313,0.972-1.964c0.35-0.638,0.737-1.251,1.12-1.87
							c0.772-1.234,1.586-2.449,2.442-3.641c0.856-1.192,1.755-2.36,2.699-3.501c0.472-0.57,0.954-1.134,1.449-1.689
							c0.526-0.525,1.063-1.042,1.612-1.551c2.196-2.036,4.576-3.939,7.143-5.662c1.253-0.896,2.696-1.586,4.126-2.292
							c1.442-0.693,2.931-1.334,4.467-1.918c1.539-0.58,3.11-1.118,4.75-1.561c1.691-0.379,3.429-0.693,5.21-0.935
							c-3.179,3.904-5.905,8.36-8.797,12.613c-0.738,1.049-1.391,2.188-2.042,3.328l-1.969,3.406l-1.968,3.406l-0.978,1.708
							l-0.89,1.789l-3.557,7.156l-0.885,1.792l-0.791,1.865l-1.58,3.73l-1.579,3.731c-0.26,0.624-0.534,1.239-0.782,1.871
							l-0.689,1.931l-2.752,7.725c-3.363,10.456-6.294,21.187-8.198,32.241c-1.139,5.473-1.78,11.073-2.581,16.632
							c-0.219,1.387-0.33,2.793-0.466,4.194l-0.402,4.205C276.931,412.633,276.572,415.427,276.469,418.248z"/>
						<path style="fill:none;stroke:#BEDEF5;stroke-width:1.1396;stroke-miterlimit:10;" d="M275.648,442.231
							c0.059-14.415,0.878-28.852,2.716-43.112l0.744-5.336c0.253-1.778,0.466-3.565,0.829-5.315l1.977-10.549l2.477-10.38
							c0.374-1.747,0.934-3.413,1.418-5.113l1.498-5.078c4.175-13.448,9.559-26.271,16.016-38.123l5.033-8.709l5.485-8.233
							c0.461-0.681,0.907-1.38,1.381-2.047l1.477-1.929l2.954-3.858l2.961-3.849l3.144-3.591"/>
						<path style="fill:#BEDEF5;stroke:#BEDEF5;stroke-width:1.0616;stroke-miterlimit:10;" d="M279.936,388.476
							c0.904-4.61,1.349-10.265,2.29-16.508c0.708-6.327,1.853-13.235,3.138-20.643c2.692-14.72,7.491-30.904,14.544-44.798
							c7.013-13.887,16.139-25.289,25.558-31.079c1.138-0.792,2.378-1.325,3.561-1.871c1.194-0.526,2.381-0.976,3.559-1.342
							c2.366-0.715,4.653-1.176,6.964-1.115c4.663,0.192,9.094,1.851,13.236,5.285c3.31,2.748,4.982,5.276,5.397,7.584
							c0.409,2.313-0.446,4.412-2.347,6.417c-0.951,1.003-2.167,1.984-3.625,2.965c-1.457,0.983-3.018,2.153-4.87,3.26
							c-0.917,0.565-1.89,1.139-2.915,1.725c-1.016,0.597-2.132,1.146-3.174,1.866c-2.137,1.375-4.469,2.819-6.98,4.359
							c-4.849,3.276-10.308,7.081-15.758,12.031c-0.697,0.608-1.4,1.221-2.108,1.839c-0.683,0.648-1.335,1.345-2.014,2.031
							c-1.353,1.407-2.724,2.833-4.111,4.274c-0.68,0.748-1.432,1.447-2.066,2.265c-0.652,0.81-1.307,1.623-1.966,2.44
							c-1.318,1.649-2.649,3.343-3.989,5.081C291.871,348.654,283.466,367.886,279.936,388.476z"/>
					</g>
					<g>
						<path style="fill:#4684AF;stroke:#BEDEF5;stroke-width:1.1396;stroke-miterlimit:10;" d="M275.507,425.27
							c-0.37-8.755-3.006-16.496-6.285-23.494c-3.276-7.011-7.172-13.259-10.106-19.365c-2.94-6.149-4.904-12.054-4.623-19.265
							c0.145-3.642,0.818-7.607,2.072-12.374c1.261-4.798,3.077-10.343,5.203-17.461c5.867,13.576,9.009,29.009,10.946,44.55
							C274.606,393.467,275.273,409.358,275.507,425.27z"/>
						<path style="fill:none;stroke:#BEDEF5;stroke-width:1.1396;stroke-miterlimit:10;" d="M275.618,442.231
							c-0.012-20.387-0.311-40.776-2.496-60.8c-1.084-10.001-2.702-19.886-5.098-29.405c-2.443-9.476-5.659-18.639-10.133-26.653"/>
						<path style="fill:#BEDEF5;stroke:#BEDEF5;stroke-width:1.0616;stroke-miterlimit:10;" d="M274.868,404.1
							c-0.316-6.653-2.549-15.647-5.597-25.099c-3.07-9.463-7.013-19.228-10.604-27.848c-1.801-4.326-3.511-8.383-4.954-12.294
							c-1.447-3.918-2.627-7.701-3.435-11.707c-0.857-3.939-1.292-8.206-1.333-12.953c-0.017-4.76,0.425-10.123,1.608-16.17
							c0.953-4.863,1.994-7.957,3.467-9.32c1.446-1.351,3.361-1.084,5.528,0.762c4.327,3.605,9.704,13.665,12.67,26.718
							c1.517,6.497,2.494,13.631,2.98,20.937c0.501,7.314,0.516,14.806,0.337,22.291C275.179,374.4,274.159,389.367,274.868,404.1z"
							/>
					</g>
					<g>
						<path style="fill:#4684AF;stroke:#BEDEF5;stroke-width:0.2849;stroke-miterlimit:10;" d="M269.281,432.707
							c-0.493-3.799-1.735-7.004-3.435-9.534c-1.695-2.539-3.803-4.429-6.052-5.793c-3.174-1.867-5.075-2.959-6.228-4.214
							c-0.574-0.615-0.972-1.224-1.193-1.913c-0.243-0.651-0.341-1.328-0.314-2.024c0.084-2.79,2.134-5.583,4.19-5.18
							c1.746,1.733,3.393,3.653,4.836,5.811c1.431,2.165,2.727,4.483,3.814,6.953C267.072,421.756,268.514,427.172,269.281,432.707z
							"/>
						<g>
							<path style="fill:none;stroke:#BEDEF5;stroke-width:1.1396;stroke-miterlimit:10;" d="M269.884,442.17
								c-0.028-6.217-0.735-12.491-2.389-18.437c-1.599-5.957-4.21-11.537-7.643-16.159"/>
							<path style="fill:#BEDEF5;stroke:#BEDEF5;stroke-width:0.2849;stroke-miterlimit:10;" d="M268.977,430.541
								c-0.357-2.005-0.497-4.89-1.036-8.125c-0.508-3.229-1.36-6.839-2.732-10.038c-1.357-3.193-3.212-5.958-5.254-7.397
								c-0.986-0.764-2.063-1.126-3.036-1.218c-1.012-0.032-1.98,0.292-2.872,1.006c0.958-0.533,1.689-0.484,2.264-0.066
								c0.554,0.456,0.957,1.27,1.319,2.235c0.672,2.043,1.13,4.593,2.439,6.895c1.079,1.879,2.911,3.685,4.695,6.342
								C266.538,422.795,268.292,426.263,268.977,430.541z"/>
						</g>
					</g>
				</g>
				<g>
					<g>
						<path style="fill:#4684AF;stroke:#BEDEF5;stroke-width:0.8617;stroke-miterlimit:10;" d="M214.173,425.311
							c-0.545-8.726,0.35-16.813,0.939-24.955c0.145-2.03,0.392-4.087,0.492-6.118c0.079-2.054,0.159-4.094,0.237-6.12
							c0.029-1.025,0.061-2.056,0.069-3.084c-0.033-1.015-0.075-2.034-0.128-3.054c-0.107-2.041-0.261-4.091-0.484-6.144
							c-0.252-2.04-0.696-4.033-1.163-6.046c-0.241-1.003-0.505-2.004-0.793-3.002c-0.148-0.497-0.286-1.001-0.46-1.488
							l-0.568-1.445c-0.784-1.922-1.677-3.822-2.696-5.68c-0.255-0.465-0.517-0.927-0.787-1.386c-0.284-0.45-0.598-0.882-0.908-1.32
							c-0.626-0.871-1.285-1.728-1.979-2.569c-0.694-0.841-1.422-1.665-2.187-2.47c-0.382-0.402-0.773-0.8-1.174-1.192
							c-0.426-0.37-0.862-0.735-1.307-1.094c-1.779-1.436-3.708-2.779-5.788-3.995c-1.016-0.632-2.185-1.119-3.343-1.617
							c-1.169-0.489-2.376-0.941-3.62-1.353c-1.247-0.409-2.521-0.789-3.85-1.101c-1.37-0.267-2.778-0.489-4.222-0.659
							c2.576,2.754,4.785,5.898,7.129,8.899c0.598,0.74,1.127,1.543,1.654,2.348l1.595,2.403l1.595,2.403l0.793,1.205l0.721,1.262
							l2.882,5.049l0.717,1.264l0.641,1.316l1.281,2.632l1.28,2.632c0.211,0.44,0.432,0.874,0.633,1.32l0.558,1.362l2.23,5.45
							c2.725,7.377,5.1,14.948,6.643,22.746c0.923,3.862,1.442,7.812,2.091,11.734c0.178,0.979,0.267,1.97,0.378,2.959l0.326,2.967
							C213.798,421.349,214.089,423.321,214.173,425.311z"/>
						<path style="fill:none;stroke:#BEDEF5;stroke-width:0.8617;stroke-miterlimit:10;" d="M214.838,442.231
							c-0.048-10.17-0.711-20.356-2.201-30.416l-0.603-3.765c-0.205-1.254-0.378-2.515-0.672-3.75l-1.602-7.443l-2.007-7.323
							c-0.303-1.232-0.757-2.408-1.149-3.607l-1.214-3.582c-3.383-9.488-7.746-18.535-12.978-26.896l-4.079-6.144l-4.444-5.808
							c-0.374-0.481-0.735-0.974-1.119-1.444l-1.197-1.361l-2.394-2.722l-2.399-2.715l-2.548-2.534"/>
						<path style="fill:#BEDEF5;stroke:#BEDEF5;stroke-width:0.8617;stroke-miterlimit:10;" d="M211.363,404.306
							c-0.733-3.252-1.094-7.242-1.856-11.647c-0.573-4.464-1.502-9.338-2.542-14.564c-2.182-10.385-6.07-21.803-11.786-31.606
							c-5.683-9.798-13.078-17.842-20.711-21.927c-0.923-0.559-1.927-0.935-2.886-1.32c-0.967-0.371-1.929-0.688-2.884-0.947
							c-1.917-0.504-3.771-0.83-5.643-0.787c-3.779,0.135-7.37,1.306-10.726,3.729c-2.682,1.939-4.037,3.722-4.374,5.351
							c-0.332,1.632,0.362,3.112,1.902,4.527c0.771,0.708,1.755,1.4,2.938,2.092c1.181,0.694,2.446,1.519,3.947,2.3
							c0.743,0.399,1.531,0.804,2.362,1.217c0.823,0.421,1.728,0.809,2.572,1.317c1.731,0.97,3.622,1.989,5.656,3.075
							c3.929,2.312,8.353,4.996,12.77,8.488c0.565,0.429,1.135,0.862,1.708,1.297c0.554,0.458,1.082,0.949,1.632,1.433
							c1.097,0.993,2.208,1.998,3.331,3.016c0.551,0.527,1.16,1.021,1.674,1.598c0.528,0.571,1.059,1.145,1.593,1.722
							c1.068,1.164,2.147,2.358,3.232,3.585C201.692,376.211,208.503,389.78,211.363,404.306z"/>
					</g>
					<g>
						<path style="fill:#4684AF;stroke:#BEDEF5;stroke-width:0.8617;stroke-miterlimit:10;" d="M219.422,430.264
							c0.299-6.177,2.436-11.638,5.093-16.575c2.655-4.947,5.812-9.355,8.19-13.662c2.383-4.338,3.974-8.504,3.746-13.592
							c-0.117-2.569-0.663-5.367-1.679-8.73c-1.022-3.385-2.494-7.297-4.216-12.319c-4.755,9.578-7.301,20.466-8.87,31.431
							C220.152,407.827,219.611,419.039,219.422,430.264z"/>
						<path style="fill:none;stroke:#BEDEF5;stroke-width:0.8617;stroke-miterlimit:10;" d="M219.331,442.231
							c0.01-14.383,0.252-28.768,2.022-42.896c0.879-7.056,2.189-14.03,4.131-20.746c1.98-6.686,4.586-13.15,8.212-18.804"/>
						<path style="fill:#BEDEF5;stroke:#BEDEF5;stroke-width:0.8617;stroke-miterlimit:10;" d="M219.939,415.329
							c0.256-4.694,2.066-11.039,4.536-17.708c2.488-6.676,5.683-13.565,8.593-19.647c1.46-3.052,2.845-5.914,4.015-8.673
							c1.173-2.764,2.129-5.433,2.783-8.259c0.695-2.779,1.047-5.789,1.08-9.138c0.014-3.359-0.344-7.142-1.303-11.408
							c-0.772-3.431-1.616-5.614-2.809-6.575c-1.171-0.953-2.724-0.765-4.48,0.537c-3.506,2.543-7.864,9.641-10.267,18.85
							c-1.229,4.584-2.021,9.617-2.415,14.771c-0.406,5.16-0.418,10.446-0.273,15.727
							C219.687,394.375,220.514,404.934,219.939,415.329z"/>
					</g>
					<g>
						<path style="fill:#4684AF;stroke:#BEDEF5;stroke-width:0.2154;stroke-miterlimit:10;" d="M209.27,435.511
							c-0.4-2.68-1.406-4.941-2.783-6.727c-1.374-1.791-3.082-3.125-4.904-4.087c-2.572-1.318-4.113-2.087-5.047-2.973
							c-0.465-0.434-0.788-0.864-0.967-1.35c-0.197-0.46-0.277-0.937-0.254-1.428c0.068-1.968,1.729-3.939,3.396-3.654
							c1.415,1.222,2.749,2.577,3.919,4.099c1.16,1.527,2.21,3.163,3.091,4.906C207.48,427.785,208.648,431.607,209.27,435.511z"/>
						<g>
							<path style="fill:none;stroke:#BEDEF5;stroke-width:0.8617;stroke-miterlimit:10;" d="M209.758,442.188
								c-0.023-4.386-0.596-8.813-1.936-13.008c-1.296-4.203-3.411-8.14-6.194-11.401"/>
							<path style="fill:#BEDEF5;stroke:#BEDEF5;stroke-width:0.2154;stroke-miterlimit:10;" d="M209.023,433.984
								c-0.29-1.415-0.403-3.45-0.84-5.732c-0.412-2.278-1.102-4.825-2.214-7.082c-1.1-2.253-2.603-4.203-4.258-5.219
								c-0.799-0.539-1.672-0.794-2.46-0.86c-0.82-0.023-1.604,0.206-2.328,0.71c0.776-0.376,1.369-0.341,1.835-0.046
								c0.449,0.322,0.775,0.896,1.069,1.577c0.544,1.441,0.916,3.24,1.977,4.865c0.874,1.326,2.359,2.6,3.805,4.474
								C207.047,428.519,208.468,430.966,209.023,433.984z"/>
						</g>
					</g>
					<g>
						<path style="fill:#4684AF;stroke:#BEDEF5;stroke-width:0.4308;stroke-miterlimit:10;" d="M224.548,428.233
							c0.473-5.709,2.202-10.765,4.765-14.902c2.551-4.157,5.916-7.348,9.611-9.788c0.622-0.444,1.248-0.845,1.849-1.228
							c0.594-0.387,1.149-0.761,1.669-1.127c1.043-0.728,2.046-1.37,2.869-2.026c0.811-0.661,1.625-1.243,2.267-1.853
							c0.661-0.6,1.187-1.207,1.698-1.773c0.996-1.143,1.57-2.307,1.942-3.402c0.368-1.096,0.442-2.171,0.299-3.184
							c-0.56-4.063-4.658-7.042-7.867-5.808c-0.655,0.726-1.282,1.491-1.896,2.274l-1.859,2.328l-1.769,2.445l-0.88,1.229
							l-0.831,1.283c-2.262,3.375-4.236,7.066-5.914,10.929c-0.869,1.92-1.56,3.931-2.271,5.934l-0.91,3.062
							c-0.319,1.018-0.519,2.064-0.783,3.096C225.59,419.867,224.908,424.072,224.548,428.233z"/>
						<g>
							<path style="fill:none;stroke:#BEDEF5;stroke-width:0.8617;stroke-miterlimit:10;" d="M224.028,442.231
								c0.014-4.548,0.132-9.14,0.499-13.78c0.355-4.636,1.038-9.337,2.141-13.963c2.172-9.281,6.323-18.06,11.585-25.341"/>
							<path style="fill:#BEDEF5;stroke:#BEDEF5;stroke-width:0.4308;stroke-miterlimit:10;" d="M224.856,424.966
								c0.381-3.059,0.392-7.391,0.98-12.375c0.56-4.966,1.821-10.562,3.93-15.484c2.087-4.933,4.939-9.099,7.992-11.661
								c1.569-1.22,3.134-2.138,4.759-2.495c1.629-0.356,3.257-0.253,4.879,0.411c-1.694-0.382-2.86-0.053-3.723,0.73
								c-0.87,0.775-1.367,2.097-1.83,3.594c-0.918,3.044-1.391,7.002-3.523,10.629c-1.74,2.984-4.618,6.033-7.415,10.32
								C228.128,412.878,225.591,418.478,224.856,424.966z"/>
						</g>
					</g>
					<g>
						<path style="fill:#4684AF;stroke:#BEDEF5;stroke-width:0.2154;stroke-miterlimit:10;" d="M224.467,435.511
							c0.399-2.68,1.406-4.941,2.783-6.727c1.374-1.791,3.082-3.125,4.904-4.087c2.572-1.318,4.113-2.087,5.047-2.973
							c0.465-0.434,0.788-0.864,0.967-1.35c0.197-0.46,0.277-0.937,0.254-1.428c-0.068-1.968-1.729-3.939-3.396-3.654
							c-1.415,1.222-2.749,2.577-3.919,4.099c-1.16,1.527-2.21,3.163-3.091,4.906C226.257,427.785,225.088,431.607,224.467,435.511z
							"/>
						<g>
							<path style="fill:none;stroke:#BEDEF5;stroke-width:0.8617;stroke-miterlimit:10;" d="M223.979,442.188
								c0.023-4.386,0.596-8.813,1.936-13.008c1.296-4.203,3.411-8.14,6.194-11.401"/>
							<path style="fill:#BEDEF5;stroke:#BEDEF5;stroke-width:0.2154;stroke-miterlimit:10;" d="M224.714,433.984
								c0.29-1.415,0.403-3.45,0.84-5.732c0.412-2.278,1.102-4.825,2.214-7.082c1.1-2.253,2.603-4.203,4.258-5.219
								c0.799-0.539,1.672-0.794,2.46-0.86c0.82-0.023,1.605,0.206,2.328,0.71c-0.776-0.376-1.369-0.341-1.835-0.046
								c-0.449,0.322-0.775,0.896-1.069,1.577c-0.544,1.441-0.916,3.24-1.977,4.865c-0.874,1.326-2.359,2.6-3.805,4.474
								C226.69,428.519,225.268,430.966,224.714,433.984z"/>
						</g>
					</g>
				</g>
			</g>
			<path style="fill:#030406;stroke:#030406;stroke-width:0.6783;stroke-miterlimit:10;" d="M441.589,443.942H58.411
				c-0.945,0-1.711-0.766-1.711-1.711l0,0c0-0.945,0.766-1.711,1.711-1.711h383.178c0.945,0,1.711,0.766,1.711,1.711l0,0
				C443.3,443.176,442.534,443.942,441.589,443.942z"/>
		</g>
		<g>
			<g>
				<g>
					<path style="fill:#D6A59E;" d="M318.127,228.956l-35.452,4.432l-1.782-3.885c0,0-3.153-1.828-3.427-3.016
						c-0.176-0.764-0.126-2.113-0.068-2.979c0.03-0.44-0.316-0.814-0.757-0.814h-0.006c-0.558,0-1.07,0.308-1.333,0.8l-0.036,0.067
						c-0.899,1.688-1.043,3.678-0.395,5.478l0.857,2.383l-11.891-7.715c-0.749-0.486-1.748-0.289-2.256,0.446
						c-0.498,0.72-0.348,1.704,0.343,2.242l7.863,6.125l-0.548,0.727l-10.894-7.832c-0.878-0.631-2.109-0.355-2.634,0.589
						c-0.439,0.79-0.227,1.782,0.497,2.324l10.06,7.528l-0.411,0.914l-9.215-6.274c-0.775-0.527-1.839-0.187-2.164,0.692
						c-0.229,0.62-0.012,1.313,0.533,1.687c2.274,1.558,8.117,5.624,10.367,7.777v1.192l-7.032,0.917
						c-0.645,0.084-1.124,0.641-1.109,1.292l0,0c0.016,0.692,0.581,1.245,1.274,1.245h74.963l3.871-16.246l-17.695-4.764
						L318.127,228.956z"/>
					<path style="fill:#F2643C;" d="M339.366,184.896c-7.897-1.135-15.23,4.313-16.423,12.202l-5.893,26.489l20.295,5.464
						l10.241-42.972L339.366,184.896z"/>
				</g>
				<polygon style="fill:#AF4C25;" points="329.906,199.044 325.505,225.863 329.845,227.031 				"/>
			</g>
			<path style="fill:#F2643C;" d="M347.586,186.078l31.318,10.451c0.047,0.016,0.085,0.036,0.122,0.068
				c1.112,0.971,19.102,18.222,0.014,103.977c-0.039,0.175-0.195,0.303-0.374,0.303h-59.405c0,0,10.645-59.934,10.645-59.956
				c-0.225-14.428,0.202-34.353,0-41.877C329.657,189.735,338.781,183.048,347.586,186.078z"/>
			<path style="fill:#AF4C25;" d="M381.848,287.094c4.471-23.086,5.987-40.484,5.92-53.52H372.81L381.848,287.094z"/>
			<g>
				<path style="fill:#FFFFFF;" d="M144.402,157.641c-5.134-9.79-15.261-14.251-24.626-14.853
					c-9.172-0.589-14.834,7.961-13.844,9.782c0.989,1.821,4.442,1.258,12.721,1.415c8.138,0.154,12.477,2.771,16.409,9.897
					c4.001,7.25,5.114,10.566,7.186,10.592C144.322,174.5,148.813,167.025,144.402,157.641z M118.703,153.23
					c-7.346-0.124-11.205,0.469-11.991-1.129c-0.786-1.598,4.391-8.145,13.016-8.559
					C119.458,147.175,118.973,149.598,118.703,153.23z M135.707,163.486c3.081-1.937,4.971-3.512,8.052-5.449
					c3.679,7.835,0.321,15.48-1.459,15.53C140.52,173.617,139.244,169.926,135.707,163.486z"/>
			</g>
			<g>
				<path style="fill:#FFFFFF;" d="M371.568,184.107c2.072-0.026,3.185-3.342,7.186-10.592c3.933-7.126,8.272-9.743,16.409-9.897
					c8.279-0.156,11.732,0.406,12.721-1.415c0.99-1.821-4.673-10.371-13.844-9.782c-9.364,0.601-19.492,5.063-24.626,14.853
					C365.005,176.658,369.496,184.132,371.568,184.107z M394.09,153.175c8.625,0.413,13.802,6.961,13.016,8.559
					c-0.786,1.598-4.646,1.005-11.991,1.129C394.845,159.23,394.359,156.808,394.09,153.175z M371.517,183.199
					c-1.78-0.05-5.138-7.695-1.459-15.53c3.081,1.937,4.971,3.512,8.052,5.449C374.573,179.558,373.297,183.249,371.517,183.199z"/>
			</g>
			<g>
				<g>
					<path style="fill:#EE8222;" d="M131.194,409.84l26.838-52.204l-19.586-32.202c-1.274-2.095-2.919-3.95-4.891-5.407
						c-4.004-2.958-11.204-9.512-12.561-19.15h36.764l26.008,48.434c3.539,6.59,3.006,14.621-1.372,20.686l-37.782,52.337
						L131.194,409.84z"/>
					<path style="fill:#AF4C25;" d="M153.711,409.73l26.072-36.115l-1.876-35.218l-3.667-6.829l-45.147-24.536l3.841,12.523
						c0.193,0.149,0.381,0.291,0.562,0.425c2.013,1.493,3.694,3.387,4.996,5.528l19.54,32.127l-11.04,21.473L153.711,409.73z"/>
					<path style="fill:#030406;" d="M132.63,408.928c-2.45,0.803-5.197,6.254-6.783,6.695c-1.586,0.44-4.493,3.612-4.405,5.109
						c0.056,0.959,5.318,9.293,9.093,15.159c2.331,3.622,6.34,5.807,10.647,5.807h13.564c0,0,0.176-3.436-0.881-3.612
						c0,0-0.515-2.784-4.762-4.228c-4.405-1.498-3.776-6.362-4.08-9.758c-0.154-1.716-0.96-3.299-2.276-4.412
						c-0.994-0.841-2.109-1.955-2.805-3.184C138.444,413.861,138.004,407.166,132.63,408.928z"/>
				</g>
				<g>
					<g>
						<path style="fill:#E9BDB3;" d="M176.731,175.976l-2.951,6.014l-3.296,6.724h-18.641c0,0,10.031-23.357,10.385-23.834
							L176.731,175.976z"/>
						<path style="fill:#D6A59E;" d="M176.731,175.976l-2.951,6.014c-6.481-2.221-15.7-1.592-20.852,6.724h-1.085
							c0,0,10.031-23.357,10.385-23.834L176.731,175.976z"/>
					</g>
					<g>
						<path style="fill:#4D291F;" d="M163.899,166.841c-0.728,1.852-0.023,4.179-1.786,5.942c-1.763,1.763-3.627,2.675-4.684,4.071
							c-1.058,1.396-2.519-0.59-1.007-2.577c1.511-1.986-2.468-7.462,0.05-9.878c0,0-3.429-4.939-0.858-8.268
							c2.571-3.329,9.975-2.792,13.4-7.462c3.425-4.671,16.733-0.18,12.33,11.005c-0.191,0.484-7.767,12.296-7.767,12.296
							l-4.614,0.107L163.899,166.841z"/>
						<path style="fill:#E9BDB3;" d="M180.953,158.788c3.073,6.42,3.442,18.213,0,19.654c-3.442,1.441-10.081-0.524-12.416-5.765
							c0,0-3.196,1.31-4.426-2.62c-0.715-2.287-0.253-3.934,0.572-4.316c1.159-0.537,2.015,0.537,2.065,1.127
							c0,0,2.086-0.865,2.922,1.381c0.931,2.503,0.834,2.987,0.834,2.987h2.336l-0.555-5.125c-0.107-0.988,0.275-1.963,1.015-2.568
							c0.987-0.807,2.394-2.152,3.473-3.969C179.109,155.643,180.953,158.788,180.953,158.788z"/>
					</g>
				</g>
				<g>
					<path style="fill:#1E499F;" d="M178.891,188.715H144.19c-5.439,0-10.368,3.173-12.624,8.122
						c-7.025,15.411-19.535,52.064-10.571,104.04h61.233l-10.762-51.686L178.891,188.715z"/>
					<g>
						<path style="fill:#1E499F;" d="M188.843,193.814c-2.304-3.202-6.008-5.099-9.952-5.099c-20.132,0-12.018,33.886-12.018,33.886
							l20.425,16.887l15.883-25.752L188.843,193.814z"/>
						<path style="fill:#E9BDB3;" d="M278.51,242.48l6.635-4.093c0.26-0.161,0.301-0.538,0.067-0.736
							c-0.667-0.562-1.61-0.655-2.371-0.233c-0.795,0.44-1.689,0.932-1.766,0.957c-0.1,0.033,1.911-3.657,3.074-5.777
							c0.359-0.655-0.117-1.452-0.865-1.452c-0.278,0-0.543,0.118-0.729,0.324l-2.366,2.615l-6.529,3.451v-0.653l5.97-3.405
							l2.459-3.778c0.387-0.595,0.117-1.395-0.551-1.633c-0.397-0.142-0.84-0.044-1.14,0.252l-2.82,2.781l-5.13,2.985
							c0,0-4.897,0-5.224,0c-0.327,0,0-0.839,0-0.839h3.325c0.725,0,1.439-0.183,2.074-0.533l1.671-0.919
							c1.126-0.619,1.552-2.024,0.959-3.164h-9.845c-1.842,0-3.628,0.634-5.057,1.796l-3.059,2.487l-44.419-5.711l-9.692-13.467
							l-13.451,21.809l13.594,7.698c3.545,2.008,7.55,3.063,11.624,3.063h57.22h4.725c1.039,0,2.037-0.4,2.788-1.118l1.669-1.594
							l-0.126-0.335c-0.433-0.406-1.065-0.518-1.611-0.286l-1.475,0.628h-4.384v-0.606L278.51,242.48z"/>
					</g>
					<polygon style="fill:#2C2E73;" points="166.873,222.601 171.466,249.191 174.007,228.499 					"/>
				</g>
				<path style="fill:#EE8222;" d="M126.538,300.877l2.555,6.156c1.082,2.605,2.578,5.018,4.432,7.145l10.146,11.638
					c0,0,10.643,35.159,12.182,40.295c0.86,2.867-1.671,8.627-1.096,17.366c0.881,13.408,4.65,31.842,4.65,42.095h15.236
					l4.057-124.694H126.538z"/>
				<path style="fill:#232132;" d="M159.407,425.571c0,0-2.129,0.24-2.77,3.448c-0.641,3.207-0.256,7.387-0.256,7.387
					s-1.199,0.962-0.718,5.292h44.613c0,0,1.283-3.528-1.283-4.811c0,0,0-3.137-4.17-3.252c-4.17-0.116-14.75-5.908-15.872-8.063
					s-4.306,0-4.306,0H159.407z"/>
			</g>
			<g>
				<path style="fill:#E9BDB3;" d="M362.555,192.217c1.236,1.861-6.189,6.346-15.234,6.346c-0.213,0-0.422,0.041-0.619-0.01
					c-3.663-0.949-11.306-12.206-11.306-12.206l0.791-12.566l9.939-1.663l4.757,8.59l2.351,2.462l-0.001,0.01L362.555,192.217z"/>
				<path style="fill:#D6A59E;" d="M353.234,183.169l-0.001,0.01c-2.104-1.13-14.675,3.65-5.912,15.384
					c-0.213-0.01-0.422,0.039-0.619-0.01c-3.896-0.971-11.306-12.206-11.306-12.206l0.791-12.566l9.939-1.663l4.757,8.59
					L353.234,183.169z"/>
				<g>
					<path style="fill:#4D291F;" d="M326.306,168.798c-2.135-2.024-3.913-3.134-4.018-6.665c-0.105-3.531,3.87-4.439,5.544-3.027
						c0,0,14.225-9.483,19.141-1.312c0,0,6.066-0.403,6.485,5.549c0.418,5.952-4.245,12.295-3.408,14.313
						c0.837,2.018,0.834,3.051,0.834,3.051l-4.538-0.314c0,0-2.51-4.641-4.079-3.733c-1.569,0.908-2.929,3.026-2.929,3.026h-5.543
						L326.306,168.798z"/>
					<path style="fill:#E9BDB3;" d="M326.577,167.379c-1.883,8.676,0.105,18.462,4.707,19.571c4.602,1.11,8.472-3.127,8.995-5.044
						c0,0,3.242,1.816,4.288-3.127s-4.288-4.136-5.02-0.504h-2.406c0,0,0.523-2.926-1.921-4.136
						c-2.763-1.369-1.949-3.228-1.949-4.136C333.271,169.094,326.577,167.379,326.577,167.379z"/>
				</g>
			</g>
			<g>
				<path style="fill:#F2643C;" d="M400.038,222.189c-6.552-14.892-11.675-22.353-21.012-25.592
					c-9.532-3.306-11.974,27.247-6.216,36.976c2.326,3.931,10.145,14.389,13.956,19.435l19.62-15.158
					C404.452,232.753,402.258,227.234,400.038,222.189z"/>
				<path style="fill:#E9BDB3;" d="M404.177,239.507l-17.41,13.502c1.293,1.712,2.126,2.803,2.126,2.803l-20.16,26.818l-1.777-0.162
					c-1.03-0.094-2.068,0.065-3.023,0.463l-5.847,2.436l-1.323-0.716c-0.581-0.314-1.279-0.327-1.872-0.035
					c-0.767,0.379-0.965,1.382-0.4,2.023l0.653,0.742c0.968,1.1,2.464,1.576,3.89,1.239l3.463-0.82l-7.869,6.464
					c-0.389,0.32-0.536,0.849-0.366,1.323c0.25,0.699,1.069,1.003,1.714,0.636l7.587-4.316l-3.955,4.259l-3.711,1.972
					c-0.666,0.354-0.976,1.139-0.731,1.853c0.271,0.789,1.122,1.217,1.917,0.964l0.244-0.078l0.709,0.905
					c0.547,0.698,1.534,0.868,2.283,0.393l4.917-3.118l4.107-3.651l-1.825,3.955l-2.332,1.484c-0.531,0.338-0.631,1.071-0.21,1.539
					c0.328,0.364,0.868,0.443,1.286,0.188l2.778-1.695l37.311-38.548c2.707-2.796,3.604-6.876,2.312-10.547
					C407.511,248.515,405.953,244.188,404.177,239.507z"/>
				<polygon style="fill:#D6A59E;" points="386.767,253.009 388.893,255.812 404.177,239.507 				"/>
			</g>
			<g>
				<g>
					<g>
						<polygon style="fill:#232132;" points="345.353,300.876 344.582,314.519 343.061,341.532 332.32,379.452 319.258,425.571 
							302.969,425.571 308.121,359.02 323.588,300.876 						"/>
						<polygon style="fill:#030406;" points="344.582,314.519 343.061,341.532 332.32,379.452 332.32,315.757 						"/>
					</g>
					<path style="fill:#854735;" d="M307.544,425.155c-1.595-1.495-4.088-4.387-4.985-3.39c-0.897,0.997-9.87,8.767-11.964,9.864
						c-2.094,1.097-12.363,0.804-14.058,5.689c0,0-2.293,0.983-0.598,4.38H322c0,0,0.997-4.878-1.196-5.776
						c0,0,0.651-4.785,1.422-8.773c0.771-3.988-2.565-3.004-2.565-3.004l-0.404,1.426L307.544,425.155z"/>
				</g>
				<path style="fill:#232132;" d="M332.318,300.877v13.897l5.027,11.803l-2.239,46.18l5.282,52.814h15.359c0,0,0-6.473,0-14.468
					c0-14.088,6.473-17.134,1.904-35.79c0,0,18.582-61.258,21.389-74.738L332.318,300.877z"/>
				<path style="fill:#AF4C25;" d="M310.813,441.698h49.884c0,0,0.37-5.366-1.236-6.27c0,0-1.104-2.911-1.505-6.022
					c-0.401-3.111-0.201-5.018-2.208-5.018v1.184c0,0-8.198,0-10.407,0s-4.617-3.291-7.126-2.087
					c-2.509,1.204-8.563,6.725-10.069,7.227c-1.506,0.502-16.26,0.502-17.333,6.223
					C310.813,436.934,308.435,438.132,310.813,441.698z"/>
			</g>
		</g>
	</g>
</g>
</svg>
